<?xml version="1.0" encoding="UTF-8" standalone="no"?>
<!-- Created with Inkscape (http://www.inkscape.org/) -->

<svg
   width="59.686497mm"
   height="59.686501mm"
   viewBox="0 0 59.686497 59.686501"
   version="1.1"
   id="svg1"
   xml:space="preserve"
   xmlns:inkscape="http://www.inkscape.org/namespaces/inkscape"
   xmlns:sodipodi="http://sodipodi.sourceforge.net/DTD/sodipodi-0.dtd"
   xmlns="http://www.w3.org/2000/svg"
   xmlns:svg="http://www.w3.org/2000/svg"><sodipodi:namedview
     id="namedview1"
     pagecolor="#505050"
     bordercolor="#ffffff"
     borderopacity="1"
     inkscape:showpageshadow="0"
     inkscape:pageopacity="0"
     inkscape:pagecheckerboard="1"
     inkscape:deskcolor="#505050"
     inkscape:document-units="mm"
     inkscape:export-bgcolor="#ffffff00"><inkscape:page
       x="0"
       y="0"
       width="59.686497"
       height="59.686501"
       id="page2"
       margin="0"
       bleed="0" /></sodipodi:namedview><defs
     id="defs1" /><g
     inkscape:label="Layer 1"
     inkscape:groupmode="layer"
     id="layer1"
     transform="translate(-73.458245,-93.796936)"><g
       id="g25"><rect
         style="fill:#141414;fill-opacity:1;stroke:none;stroke-width:8.13745;stroke-linecap:square;stroke-linejoin:bevel;stroke-opacity:1;paint-order:markers stroke fill"
         id="rect1-2-7"
         width="59.686493"
         height="59.686493"
         x="73.458244"
         y="93.796928"
         ry="9.7362242" /><path
         d="m 82.459938,103.70726 v 18.19278 21.83973 h 20.744412 v -21.83973 h 20.74442 v -18.19278 z"
         style="fill:#e5e5e5;fill-opacity:1;stroke-width:0.801202;stroke-linecap:square;paint-order:fill markers stroke"
         id="path5" /><rect
         style="fill:#e5e5e5;fill-opacity:1;stroke:none;stroke-width:0.930555;stroke-linecap:square;stroke-linejoin:miter;stroke-dasharray:none;stroke-opacity:1;paint-order:fill markers stroke"
         id="rect4-8"
         width="18.242981"
         height="19.368277"
         x="105.70579"
         y="124.37149"
         ry="0" /><path
         style="fill:#141414;fill-opacity:1;stroke-width:0.459304"
         d="m 110.34837,137.878 -1.64686,-2.28967 h 1.13302 1.13303 v -3.4345 -3.43449 h 1.10078 1.10076 v 3.43449 3.4345 h 1.13304 1.13302 l -1.64686,2.28967 c -0.90579,1.2593 -1.67976,2.28967 -1.71996,2.28967 -0.0403,0 -0.81419,-1.03037 -1.71997,-2.28967 z"
         id="path15-4"
         sodipodi:nodetypes="scccccccccccsss" /><path
         style="fill:#141414;fill-opacity:1;stroke-width:0.459304"
         d="m 115.949,131.009 -1.64686,2.28966 h 1.13302 1.13303 v 3.43452 3.43449 h 1.10078 1.10076 v -3.43449 -3.43452 h 1.13304 1.13302 l -1.64686,-2.28966 c -0.90579,-1.25932 -1.67976,-2.28966 -1.71996,-2.28966 -0.0403,0 -0.81419,1.03034 -1.71997,2.28966 z"
         id="path15-4-7"
         sodipodi:nodetypes="scccccccccccsss" /></g></g></svg>
